<?xml version="1.0" standalone="no"?><!DOCTYPE svg PUBLIC "-//W3C//DTD SVG 1.1//EN" "http://www.w3.org/Graphics/SVG/1.1/DTD/svg11.dtd"><svg t="1509881579503" class="icon" style="" viewBox="0 0 1024 1024" version="1.1" xmlns="http://www.w3.org/2000/svg" p-id="2053" xmlns:xlink="http://www.w3.org/1999/xlink" width="200" height="200"><defs><style type="text/css"></style></defs><path d="M512 75.851852c113.777778 0 227.555556 50.567901 303.407407 126.419753 75.851852 75.851852 126.419753 189.62963 126.419753 303.407407 0 113.777778-50.567901 227.555556-126.419753 303.407407-75.851852 75.851852-189.62963 126.419753-303.407407 126.419753s-227.555556-50.567901-303.407407-126.419753c-75.851852-75.851852-126.419753-189.62963-126.419753-303.407407 0-113.777778 50.567901-227.555556 126.419753-303.407407C284.444444 113.777778 398.222222 75.851852 512 75.851852M512 0c-126.419753 0-252.839506 50.567901-353.975309 151.703704-202.271605 202.271605-202.271605 518.320988 0 720.592593 101.135802 101.135802 227.555556 151.703704 353.975309 151.703704s252.839506-50.567901 353.975309-151.703704c202.271605-202.271605 202.271605-518.320988 0-720.592593C764.839506 50.567901 638.419753 0 512 0L512 0z" p-id="2054" fill="#515151"></path><path d="M335.239901 739.145956l-53.634844-53.634844 411.200474-411.200474 53.634844 53.634844-411.200474 411.200474Z" p-id="2055" fill="#515151"></path><path d="M278.520415 328.906272l53.634844-53.634844 411.200474 411.200474-53.634844 53.634844-411.200474-411.200474Z" p-id="2056" fill="#515151"></path></svg>