<?xml version="1.0" standalone="no"?><!DOCTYPE svg PUBLIC "-//W3C//DTD SVG 1.1//EN" "http://www.w3.org/Graphics/SVG/1.1/DTD/svg11.dtd"><svg t="1507965927291" class="icon" style="" viewBox="0 0 1024 1024" version="1.1" xmlns="http://www.w3.org/2000/svg" p-id="3533" xmlns:xlink="http://www.w3.org/1999/xlink" width="200" height="200"><defs><style type="text/css"></style></defs><path d="M574.3 530.1c0 8.8 5.7 16.3 13.8 19.6 84.2 33.2 141.4 119.7 130.1 218-10.9 94.4-87.9 171-182.4 181.5C410.4 963.1 304.3 865.4 304.3 742.9c0-87.9 54.6-163 131.6-193.3 8.1-3.2 13.7-10.7 13.7-19.4V501.9c-109.5 28.2-190 128.8-186.8 247.8C266.3 879 372.8 986.9 502.1 991.9c142.1 5.5 259.1-108.1 259.1-249 0-105.8-66-196-159.1-232.1-13.4-5.2-27.8 4.9-27.8 19.3zM428.4 280.2c0-0.7-0.6-1.3-1.3-1.3H349.9c-11.4 0-20.8-9.3-20.8-20.8 0-11.4 9.3-20.8 20.8-20.8h77.2c0.7 0 1.3-0.6 1.3-1.3v-38.9c0-0.7-0.6-1.3-1.3-1.3H353.6c-30.7 0-59.5 20.5-65 50.8-7.2 39.3 23.2 73.8 61.2 73.8h77.2c0.7 0 1.3-0.6 1.3-1.3v-38.9z" p-id="3534" fill="#8a8a8a"></path><path d="M408.1 278.9v240.5h41.5v-219.7c0-11.5-9.3-20.8-20.8-20.8H408.1z" p-id="3535" fill="#8a8a8a"></path><path d="M574.3 135.9V454.9c0 11.5 9.3 20.8 20.8 20.8s20.8-9.3 20.8-20.8v-319c0-60.4-52.3-109.2-113.8-103.4-54.3 5.1-93.9 54.4-93.9 109v95c0 0.5 0.4 0.8 0.8 0.8h19c12 0 21.7-9.7 21.7-21.7v-76.4c0-30.5 20.4-58.9 50.4-64.5 39.4-7.4 74.2 23 74.2 61.2zM512 622.3c-68.8 0-124.6 55.8-124.6 124.6s55.8 124.6 124.6 124.6S636.6 815.7 636.6 746.9s-55.8-124.6-124.6-124.6z m0 207.7c-45.9 0-83.1-37.2-83.1-83.1 0-45.9 37.2-83.1 83.1-83.1s83.1 37.2 83.1 83.1c-0.1 45.9-37.3 83.1-83.1 83.1z" p-id="3536" fill="#8a8a8a"></path></svg>