<?xml version="1.0" standalone="no"?><!DOCTYPE svg PUBLIC "-//W3C//DTD SVG 1.1//EN" "http://www.w3.org/Graphics/SVG/1.1/DTD/svg11.dtd"><svg t="1507965834064" class="icon" style="" viewBox="0 0 1024 1024" version="1.1" xmlns="http://www.w3.org/2000/svg" p-id="2374" xmlns:xlink="http://www.w3.org/1999/xlink" width="200" height="200"><defs><style type="text/css"></style></defs><path d="M725.376 32 298.56 32c-58.944 0-106.624 47.744-106.624 106.688l0 746.56c0 58.944 47.68 106.752 106.624 106.752l426.816 0c58.88 0 106.624-47.808 106.624-106.752L832 138.688C832 79.744 784.256 32 725.376 32L725.376 32zM405.248 85.312l213.376 0 0 53.376L405.248 138.688 405.248 85.312 405.248 85.312zM511.936 938.624c-29.44 0-53.312-23.808-53.312-53.376C458.624 855.872 482.496 832 511.936 832s53.312 23.872 53.312 53.248C565.248 914.816 541.376 938.624 511.936 938.624L511.936 938.624zM778.624 778.624 245.248 778.624 245.248 191.936l533.376 0L778.624 778.624 778.624 778.624zM778.624 778.624" p-id="2375" fill="#8a8a8a"></path></svg>