<?xml version="1.0" standalone="no"?><!DOCTYPE svg PUBLIC "-//W3C//DTD SVG 1.1//EN" "http://www.w3.org/Graphics/SVG/1.1/DTD/svg11.dtd"><svg t="1510646766824" class="icon" style="" viewBox="0 0 1024 1024" version="1.1" xmlns="http://www.w3.org/2000/svg" p-id="1859" xmlns:xlink="http://www.w3.org/1999/xlink" width="200" height="200"><defs><style type="text/css"></style></defs><path d="M512.542352 61.336974c-247.382227 0-447.917496 200.534246-447.917496 447.912379 0 247.373017 200.535269 447.913403 447.917496 447.913403 247.367901 0 447.908286-200.540386 447.908286-447.913403C960.450638 261.870196 759.910253 61.336974 512.542352 61.336974L512.542352 61.336974zM777.98491 373.640816l-315.638797 318.924633c-0.058328 0.11154-0.170892 0.11154-0.287549 0.228197-0.11154 0.058328-0.11154 0.287549-0.286526 0.287549-2.405793 2.521426-5.327332 3.781116-8.193613 5.384637-1.434675 0.859577-2.523473 2.065032-4.01443 2.639107-4.519943 1.885953-9.335622 2.750647-14.147208 2.750647-4.869914 0-9.743922-0.864694-14.32731-2.871397-1.486864-0.685615-2.692319-1.885953-4.124947-2.693342-2.808976-1.545192-5.782703-3.032056-8.193613-5.437849-0.058328-0.058328-0.11154-0.173962-0.170892-0.286526-0.057305-0.058328-0.227174-0.058328-0.286526-0.290619L252.319679 532.206204c-14.612813-14.95255-14.210653-38.965453 0.802272-53.637618 14.957667-14.437827 38.907125-14.210653 53.461609 0.917906l129.062448 132.395356 288.47718-291.52868c14.608719-14.899338 38.562271-15.015995 53.456492-0.286526C792.422737 334.733691 792.646841 358.799806 777.98491 373.640816L777.98491 373.640816zM777.98491 373.640816" p-id="1860" fill="#d3a543"></path></svg>