<?xml version="1.0" standalone="no"?><!DOCTYPE svg PUBLIC "-//W3C//DTD SVG 1.1//EN" "http://www.w3.org/Graphics/SVG/1.1/DTD/svg11.dtd"><svg t="1509873100157" class="icon" style="" viewBox="0 0 1024 1024" version="1.1" xmlns="http://www.w3.org/2000/svg" p-id="1883" xmlns:xlink="http://www.w3.org/1999/xlink" width="200" height="200"><defs><style type="text/css"></style></defs><path d="M512 0C230.4 0 0 230.4 0 512s230.4 512 512 512 512-230.4 512-512-230.4-512-512-512m0 877.696a73.344 73.344 0 0 1-73.152-73.152c0-40.192 32.896-73.088 73.152-73.088s73.152 32.896 73.152 73.088c0 40.256-32.896 73.152-73.152 73.152m95.104-552.192s0 3.648 0 0c0 3.648-62.208 292.544-62.208 292.544s3.648-21.952 0 0-14.592 32.896-32.896 32.896c-18.304 0-29.248-14.592-32.896-36.544-7.36-21.952-62.208-281.6-62.208-281.6 0-7.296-3.648-14.656-3.648-18.304 0-54.848 43.904-98.752 98.752-98.752 54.848 0 98.752 43.904 98.752 98.752 0 0-3.648 7.36-3.648 11.008" p-id="1884" fill="#d2bf97"></path></svg>